<mxfile host="app.diagrams.net" modified="2024-07-09T22:03:28.123Z" agent="Mozilla/5.0 (Macintosh; Intel Mac OS X 10_15_7) AppleWebKit/605.1.15 (KHTML, like Gecko) Version/17.5 Safari/605.1.15" etag="jy4MUWMgyFl0zbqMQ87t" version="24.6.4" type="github">
  <diagram name="Page-1" id="Cic60aHTllOr6LL9wVc_">
    <mxGraphModel dx="880" dy="1963" grid="0" gridSize="10" guides="1" tooltips="1" connect="1" arrows="1" fold="1" page="1" pageScale="1" pageWidth="827" pageHeight="1169" math="0" shadow="0">
      <root>
        <mxCell id="0" />
        <mxCell id="1" parent="0" />
        <mxCell id="RYFUH4lwAVfl-OstdU3m-1" value="" style="rounded=0;whiteSpace=wrap;html=1;labelBackgroundColor=none;fillColor=#BC6C25;strokeColor=#DDA15E;fontColor=#FEFAE0;" vertex="1" parent="1">
          <mxGeometry x="246" y="-163" width="120" height="60" as="geometry" />
        </mxCell>
        <mxCell id="RYFUH4lwAVfl-OstdU3m-2" value="" style="ellipse;whiteSpace=wrap;html=1;labelBackgroundColor=none;fillColor=#BC6C25;strokeColor=#DDA15E;fontColor=#FEFAE0;" vertex="1" parent="1">
          <mxGeometry x="472" y="-178" width="120" height="80" as="geometry" />
        </mxCell>
        <mxCell id="RYFUH4lwAVfl-OstdU3m-3" value="" style="endArrow=classic;startArrow=classic;html=1;rounded=0;fontSize=12;startSize=8;endSize=8;curved=1;exitX=1;exitY=0.25;exitDx=0;exitDy=0;entryX=0;entryY=0.5;entryDx=0;entryDy=0;flowAnimation=1;labelBackgroundColor=none;strokeColor=#DDA15E;fontColor=default;" edge="1" parent="1" source="RYFUH4lwAVfl-OstdU3m-1" target="RYFUH4lwAVfl-OstdU3m-2">
          <mxGeometry width="50" height="50" relative="1" as="geometry">
            <mxPoint x="330" y="-12" as="sourcePoint" />
            <mxPoint x="380" y="-62" as="targetPoint" />
          </mxGeometry>
        </mxCell>
      </root>
    </mxGraphModel>
  </diagram>
</mxfile>
